Coordinates
version=1
nRows=10
nColumns=40
inDegrees=yes

Units are S.I. units (second, meters, Newtons, ...)
Angles are in degrees.

endheader
time	pelvis_tilt	pelvis_list	pelvis_rotation	pelvis_tx	pelvis_ty	pelvis_tz	hip_flexion_r	hip_adduction_r	hip_rotation_r	knee_angle_r	knee_angle_r_beta	ankle_angle_r	subtalar_angle_r	mtp_angle_r	hip_flexion_l	hip_adduction_l	hip_rotation_l	knee_angle_l	knee_angle_l_beta	ankle_angle_l	subtalar_angle_l	mtp_angle_l	lumbar_extension	lumbar_bending	lumbar_rotation	arm_flex_r	arm_add_r	arm_rot_r	elbow_flex_r	pro_sup_r	wrist_flex_r	wrist_dev_r	arm_flex_l	arm_add_l	arm_rot_l	elbow_flex_l	pro_sup_l	wrist_flex_l	wrist_dev_l
     14.02928571	     -3.20920857	     -2.86291176	      0.15413951	      0.88586286	      0.93625338	      0.43065982	     31.30348372	     -5.05556063	     -5.25169662	     59.14153802	     59.14153802	      2.63265561	    -11.57572132	     -1.14448253	      8.52589018	     -1.99823992	     -9.11963505	     15.62647772	     15.62647772	     12.22703566	    -11.05052313	     -0.17473383	     -9.08446526	      5.51704038	      3.42077376	     -5.00611262	    -11.84256765	     -5.56685679	     23.24438715	     46.49055438	      0.00000000	      0.00000000	     19.03960389	    -13.67616339	      0.68949639	     51.46433833	     46.43326252	      0.00000000	      0.00000000
     14.04107143	     -3.20455731	     -2.94073123	     -0.21432630	      0.88524949	      0.93638836	      0.43135573	     31.64014098	     -4.75030141	     -5.53552710	     56.31847108	     56.31847108	      2.70483203	    -10.84367208	     -1.16873724	      7.69782085	     -2.07613064	     -9.38371528	     15.01408105	     15.01408105	     12.39098705	    -10.94348771	     -0.31395446	     -9.23243265	      5.62932522	      3.55459696	     -6.35941834	    -11.92858186	     -5.62709570	     22.88142918	     46.50427697	      0.00000000	      0.00000000	     19.91806260	    -13.89305114	      0.07292541	     52.85563132	     46.51403223	      0.00000000	      0.00000000
     14.05285714	     -3.30835918	     -3.08105170	     -0.53263596	      0.88458040	      0.93628850	      0.43212180	     31.92233697	     -4.39270050	     -5.94201177	     53.14840102	     53.14840102	      2.78047085	    -10.07683648	     -1.05386771	      7.07417033	     -2.23345064	     -9.60217891	     14.55059060	     14.55059060	     12.59230214	    -10.89409774	     -0.43030002	     -9.22559764	      5.82450223	      3.49142541	     -7.56239832	    -12.03531811	     -5.70575469	     22.60874710	     46.51435667	      0.00000000	      0.00000000	     20.70394395	    -14.21285125	     -0.38451660	     53.92878215	     46.57391601	      0.00000000	      0.00000000
     14.06464286	     -3.30215204	     -3.19623796	     -0.90195686	      0.88402228	      0.93622826	      0.43301744	     31.91069146	     -4.01833264	     -6.33455042	     49.65719338	     49.65719338	      2.85419383	     -9.20579865	     -1.04034625	      6.28177800	     -2.35879746	     -9.85726429	     14.02554486	     14.02554486	     12.79783778	    -10.80147717	     -0.61359036	     -9.34998001	      5.98006382	      3.63956026	     -8.80304711	    -12.16501702	     -5.84138462	     22.45128415	     46.52445749	      0.00000000	      0.00000000	     21.44725812	    -14.36977911	     -0.96483442	     55.43819096	     46.64916671	      0.00000000	      0.00000000
     14.07642857	     -3.34743240	     -3.23560248	     -1.27900474	      0.88345709	      0.93587464	      0.43406983	     31.77149437	     -3.66964396	     -6.70205679	     45.82419997	     45.82419997	      2.43058180	     -8.55023015	     -2.62677460	      5.52759225	     -2.40706130	    -10.17549968	     13.44365740	     13.44365740	     12.69810403	    -10.82105802	     -1.50708090	     -9.54159295	      5.99625464	      3.35999243	    -10.07916595	    -12.20111655	     -6.62202821	     23.52701149	     46.54690715	      0.00000000	      0.00000000	     21.17212167	    -14.71405981	     -2.96682670	     59.19252603	     46.87241675	      0.00000000	      0.00000000
     14.08821429	     -3.39647171	     -3.32127356	     -1.62049278	      0.88296706	      0.93549695	      0.43509629	     31.46031939	     -3.28235885	     -7.18629466	     41.81257779	     41.81257779	      2.49138796	     -7.48765212	     -2.61108345	      4.84645556	     -2.50541931	    -10.42063054	     13.02262109	     13.02262109	     12.90564297	    -10.76427166	     -1.72752444	     -9.60094269	      6.11305616	      3.51860143	    -11.08852918	    -12.34474478	     -6.78401259	     23.25592762	     46.56809871	      0.00000000	      0.00000000	     21.89946479	    -14.82981563	     -3.44868932	     60.40260796	     46.93653694	      0.00000000	      0.00000000
     14.10000000	     -3.51351484	     -3.43815005	     -1.91367898	      0.88253975	      0.93489483	      0.43626340	     31.04253273	     -2.82064991	     -7.71567605	     37.64681851	     37.64681851	      2.59763745	     -6.35784475	     -2.24888318	      4.31401486	     -2.66072797	    -10.61011104	     12.75091400	     12.75091400	     13.16063552	    -10.77249428	     -1.93523474	     -9.57861980	      6.28868318	      3.55370396	    -11.97425785	    -12.45912327	     -6.92744933	     23.12351027	     46.57996445	      0.00000000	      0.00000000	     22.52663668	    -15.05567822	     -3.80480566	     61.46767632	     46.98543063	      0.00000000	      0.00000000
     14.11178571	     -3.67799410	     -3.47828254	     -2.22501177	      0.88223662	      0.93401939	      0.43754312	     30.56885054	     -2.38774589	     -8.20243435	     33.50631569	     33.50631569	      2.70771181	     -5.15661503	     -1.72278432	      3.82498750	     -2.72929683	    -10.82979226	     12.47605657	     12.47605657	     13.43434606	    -10.81063136	     -2.15132739	     -9.43515585	      6.35131521	      3.63059853	    -12.73643694	    -12.44647967	     -7.04933915	     23.02341179	     46.58833640	      0.00000000	      0.00000000	     23.14481145	    -15.26932499	     -4.11861244	     62.51799676	     47.03202931	      0.00000000	      0.00000000
     14.12357143	     -3.58666712	     -3.46346972	     -2.51352460	      0.88239796	      0.93328211	      0.43882399	     29.70463861	     -2.09051159	     -8.93268044	     29.54374249	     29.54374249	      2.92539172	     -3.37365678	     -1.16478932	      2.95378384	     -2.73980308	    -11.23428206	     12.06610642	     12.06610642	     13.62211674	    -10.50636735	     -2.87348910	     -9.64652380	      6.31972519	      3.65673501	    -13.66888129	    -12.53056608	     -7.73831764	     23.63604842	     46.61609679	      0.00000000	      0.00000000	     23.05726371	    -15.37001705	     -5.06901366	     65.46771256	     47.15895146	      0.00000000	      0.00000000
     14.13535714	     -3.67793182	     -3.51729045	     -2.73493025	      0.88252277	      0.93218817	      0.44025232	     28.95926886	     -1.60094558	     -9.41090427	     25.76978466	     25.76978466	      2.98124542	     -2.19588243	     -0.24028697	      2.45114643	     -2.83982370	    -11.32152486	     11.96799511	     11.96799511	     13.95035598	    -10.64440109	     -3.12488179	     -9.55939937	      6.40356898	      3.64125333	    -14.21679314	    -12.56393023	     -7.89008687	     23.56276344	     46.62778101	      0.00000000	      0.00000000	     23.52330643	    -15.54436581	     -5.31169303	     66.32259078	     47.19707907	      0.00000000	      0.00000000
